<svg width="324" height="324" viewBox="0 0 324 324" fill="none" xmlns="http://www.w3.org/2000/svg">
<path d="M203.824 217.895C202.261 218.387 200.71 218.988 199.308 219.637C193.957 222.16 189.195 225.734 185.175 230.262C177.933 238.301 167.386 242.898 156.218 242.898H115.679C112.222 242.898 108.968 244.453 106.746 247.156C104.499 249.898 103.648 253.348 104.347 256.867C105.414 262.078 110.632 266.031 116.488 266.031C116.527 266.031 116.562 266.055 116.601 266.055C118.406 265.965 120.222 265.898 121.984 266.055C134.199 267.148 143.246 273.859 148.683 279.293C150.941 281.547 150.941 285.211 148.683 287.469C147.554 288.602 146.074 289.168 144.593 289.168C143.113 289.168 141.632 288.602 140.503 287.469C136.421 283.395 129.71 278.359 120.941 277.574C119.519 277.441 118.062 277.465 116.601 277.574C116.562 277.574 116.527 277.602 116.488 277.602H92.5464C91.5151 277.602 90.4995 277.324 89.6167 276.801L21.3745 236.664C20.562 236.18 19.6636 235.766 18.8237 235.484C18.2378 235.305 17.4878 235.129 16.7847 235C12.5972 234.215 8.15966 235.395 4.8745 238.207C1.56591 241.047 -0.15675 245.059 0.011219 249.496C0.210437 254.199 3.14794 258.789 7.687 261.449L94.1206 312.297H231.339V214.051C227.414 214.188 221.917 214.527 216.23 215.316C211.742 215.895 207.476 216.781 203.824 217.895Z" fill="#100F0D"/>
<path d="M271.82 306.512H260.253V294.949H271.82V306.512ZM242.906 202.418V323.863H323.867V202.418H242.906Z" fill="#100F0D"/>
<path d="M185.074 179.285V167.719C185.074 162.27 184.449 156.883 183.21 151.719C180.289 139.254 173.902 127.832 164.734 118.66C155.863 109.785 144.792 103.496 132.718 100.461C127.761 99.1875 122.589 98.4883 117.292 98.3789C117.066 98.3633 116.917 98.3594 116.75 98.3477C116.519 98.332 116.285 98.3242 116.07 98.3242C116.019 98.3242 115.957 98.3242 115.91 98.3242H115.906C115.835 98.3242 115.746 98.3203 115.679 98.3242C114.132 98.3242 112.582 98.5039 111.031 98.6094C109.558 98.707 108.05 98.7617 106.636 98.9375C103.953 99.2852 101.277 99.7578 98.6206 100.41C76.5972 105.969 59.0386 121.707 50.9995 142.496C49.8511 145.465 48.8979 148.535 48.1479 151.699C46.9097 156.883 46.2808 162.27 46.2808 167.719V179.285H69.4136V156.152C69.4136 152.957 72.0034 150.371 75.1948 150.371C78.3901 150.371 80.98 152.957 80.98 156.152V179.285H150.375V156.152C150.375 152.957 152.964 150.371 156.16 150.371C159.351 150.371 161.941 152.957 161.941 156.152V179.285H185.074Z" fill="#100F0D"/>
<path d="M80.98 52.0586C80.98 53.6641 81.0854 55.1016 81.2964 56.3438C81.3354 56.5586 81.3628 56.7734 81.3745 56.9961C82.1753 62.1289 83.7573 66.4414 86.1831 70.3516C86.6479 71.082 87.1245 71.8164 87.6401 72.5234C87.8042 72.6953 87.9644 72.8789 88.1089 73.0703C91.8315 78.082 96.894 81.9531 102.765 84.2734C102.773 84.2734 102.781 84.2773 102.789 84.2773C104.746 85.0586 106.753 85.6289 108.796 86.043C109.527 86.1875 110.289 86.2188 111.031 86.3164C112.511 86.5156 113.984 86.7305 115.492 86.7383C115.671 86.7383 115.863 86.7461 116.046 86.75C116.257 86.75 116.468 86.7617 116.671 86.7344C121.144 86.5547 124.902 85.7539 128.574 84.2422C134.449 81.918 139.527 78.0312 143.328 72.9844C143.984 72.1211 144.621 71.25 145.16 70.375C145.164 70.3672 145.167 70.3594 145.171 70.3555V70.3516C145.796 69.3398 146.371 68.3047 146.886 67.2578C147.832 65.3203 148.558 63.3203 149.117 61.2734C149.472 59.9648 149.777 58.6445 149.972 57.2969C150.039 56.7969 150.078 56.5195 150.136 56.207C150.281 55.1094 150.375 53.5781 150.375 52.0586C150.375 36.6641 140.507 23.3672 125.816 18.9688C124.292 18.4336 122.812 18.0898 121 17.8164C117.328 17.1836 113.917 17.207 110.46 17.7969C108.542 18.0898 107.062 18.4336 105.82 18.8789C90.8472 23.3672 80.98 36.6641 80.98 52.0586Z" fill="#100F0D"/>
<path d="M35.1089 39.6523C37.0386 52.207 45.1792 62.4258 56.5073 66.9219C61.6714 68.9883 67.3003 69.7852 72.73 69.25C72.6558 69.0625 72.6089 68.8594 72.5386 68.6719C72.1479 67.6445 71.8237 66.5938 71.5073 65.5391C71.3433 64.9961 71.1479 64.4688 71.0073 63.9141C70.5854 62.293 70.2378 60.6484 69.9917 58.9648C69.9604 58.8438 69.8823 58.4609 69.8433 57.9453C69.5581 56.1523 69.4136 54.1797 69.4136 52.0586C69.4136 49.6445 69.6284 47.2852 69.98 44.9648C70.0972 44.1992 70.3003 43.4688 70.4565 42.7188C70.7651 41.1797 71.1089 39.6641 71.5659 38.1836C71.8315 37.332 72.1558 36.5117 72.4722 35.6797C72.9683 34.3594 73.4995 33.0625 74.1128 31.8008C74.519 30.9688 74.9448 30.1641 75.3979 29.3594C76.0737 28.1602 76.8042 27.0039 77.5815 25.8711C78.0972 25.1211 78.6089 24.375 79.1675 23.6602C80.0464 22.5352 81.0034 21.4805 81.9839 20.4375C82.5659 19.8242 83.1089 19.1875 83.7222 18.6094C84.9604 17.4375 86.2925 16.3672 87.6636 15.3359C88.1206 14.9922 88.5308 14.5977 89.0034 14.2734C90.7964 13.0195 92.6831 11.8789 94.6714 10.8828C89.4214 5.32031 82.437 1.62109 74.7417 0.46875C71.0581 -0.164063 67.6558 -0.140625 64.1987 0.445312C47.0698 3.04688 34.7144 17.4492 34.7144 34.7109C34.7144 36.3125 34.8198 37.7539 35.0347 38.9961C35.0737 39.2109 35.0933 39.4297 35.1089 39.6523Z" fill="#100F0D"/>
<path d="M142.191 14.1406C143.246 14.8672 144.191 15.7109 145.171 16.5156C145.941 17.1484 146.734 17.7461 147.457 18.4219C148.316 19.2305 149.093 20.1094 149.886 20.9805C150.628 21.793 151.371 22.6055 152.05 23.4688C152.726 24.332 153.347 25.2227 153.96 26.1328C154.636 27.1328 155.277 28.1484 155.875 29.2031C156.378 30.0898 156.855 30.9844 157.3 31.9102C157.875 33.1016 158.375 34.3281 158.847 35.5781C159.179 36.4531 159.523 37.3164 159.8 38.2188C160.25 39.668 160.582 41.1641 160.89 42.6719C161.046 43.4414 161.257 44.1875 161.375 44.9688C161.726 47.2891 161.941 49.6484 161.941 52.0586C161.941 54.1484 161.804 56.1836 161.542 58.1094C161.472 58.6602 161.429 58.9609 161.359 59.293C161.132 60.8672 160.792 62.4453 160.378 64.0156C160.242 64.5312 160.054 65.0352 159.902 65.5469C159.578 66.6016 159.246 67.6484 158.843 68.6914C158.769 68.875 158.73 69.0664 158.652 69.25C164.203 69.793 169.746 68.9727 174.851 66.8906C186.257 62.3438 194.437 52.0195 196.242 39.9258C196.304 39.4492 196.339 39.168 196.398 38.8594C196.546 37.7578 196.64 36.2266 196.64 34.7109C196.64 17.4492 184.285 3.04688 167.261 0.460937C163.597 -0.15625 160.183 -0.140625 156.726 0.445312C148.941 1.61328 141.941 5.3125 136.683 10.8789C138.007 11.5391 139.222 12.3398 140.46 13.1172C141.023 13.4727 141.644 13.7617 142.191 14.1406Z" fill="#100F0D"/>
<path d="M210.996 101.309C202.128 92.4375 191.054 86.1484 178.98 83.1133C170.011 80.8203 160.851 80.3477 151.085 81.8086C150.714 82.2578 150.265 82.625 149.875 83.0586C149.027 83.9922 148.167 84.8984 147.25 85.7617C146.562 86.4062 145.855 87.0156 145.132 87.6172C144.183 88.4062 143.207 89.1523 142.199 89.8594C141.769 90.1602 141.386 90.5234 140.949 90.8125C141.003 90.832 141.058 90.8594 141.113 90.875C143.804 91.7656 146.433 92.8242 149.015 93.9922C149.367 94.1523 149.73 94.2969 150.082 94.4609C152.57 95.6328 154.992 96.9453 157.347 98.3633C157.789 98.6289 158.226 98.8945 158.664 99.168C160.984 100.629 163.246 102.191 165.414 103.887C165.753 104.152 166.078 104.434 166.414 104.703C168.667 106.52 170.851 108.422 172.914 110.484C183.609 121.18 191.058 134.52 194.464 149.051C195.105 151.727 195.554 154.473 195.914 157.238C196.011 157.988 196.089 158.738 196.164 159.496C196.25 160.313 196.382 161.117 196.437 161.938H196.64V138.805C196.64 135.609 199.23 133.023 202.425 133.023C205.617 133.023 208.207 135.609 208.207 138.805V161.938H231.339V150.371C231.339 144.922 230.714 139.535 229.472 134.371C226.554 121.906 220.164 110.484 210.996 101.309Z" fill="#100F0D"/>
<path d="M23.1479 138.805C23.1479 135.609 25.7378 133.023 28.9331 133.023C32.1245 133.023 34.7144 135.609 34.7144 138.805V161.938H34.9175C34.9761 161.117 35.1089 160.305 35.1909 159.484C35.269 158.738 35.3433 157.988 35.4409 157.242C35.8003 154.469 36.2534 151.715 36.8979 149.02C37.6714 145.75 38.6636 142.57 39.8081 139.469C39.8979 139.227 39.9722 138.977 40.0659 138.734C41.1831 135.789 42.4917 132.949 43.9292 130.188C44.1128 129.832 44.2808 129.477 44.4683 129.125C45.9019 126.461 47.4995 123.902 49.2144 121.434C49.4761 121.051 49.7339 120.668 50.0034 120.293C51.7378 117.883 53.605 115.582 55.5894 113.383C55.9097 113.027 56.23 112.676 56.562 112.328C58.5854 110.16 60.7261 108.105 62.98 106.176C63.3237 105.883 63.6714 105.605 64.019 105.32C66.3433 103.398 68.7612 101.586 71.3003 99.9297C71.605 99.7305 71.9253 99.5469 72.2339 99.3477C74.8784 97.6758 77.6089 96.125 80.4565 94.7578C80.644 94.668 80.8433 94.5899 81.0308 94.5C84.0269 93.0899 87.1128 91.832 90.3042 90.7852C90.3081 90.7852 90.3081 90.7852 90.3081 90.7813C89.9448 90.5469 89.6362 90.2422 89.2808 89.9961C88.23 89.2656 87.2261 88.4883 86.2417 87.6719C85.5659 87.1094 84.894 86.5508 84.2495 85.9492C83.3042 85.0625 82.4253 84.1172 81.5542 83.1524C81.1519 82.7031 80.687 82.3164 80.2964 81.8516C70.9565 80.3555 61.5854 80.793 52.3433 83.0625C27.1948 89.4063 7.84717 109.059 1.88623 134.348C0.640136 139.535 0.0151367 144.922 0.0151367 150.371V161.938H23.1479V138.805Z" fill="#100F0D"/>
</svg>
