<svg width="324" height="324" viewBox="0 0 324 324" fill="none" xmlns="http://www.w3.org/2000/svg">
<path d="M162 0C87.7461 0 25.1602 50.2773 6.10156 118.527C5.97266 118.824 5.76172 119.051 5.67578 119.359C5.57813 119.738 5.63672 120.09 5.60547 120.457C2.07031 133.742 0 147.617 0 162C0 251.324 72.6758 324 162 324C251.324 324 324 251.324 324 162C324 72.6758 251.324 0 162 0ZM162 84.5234C204.727 84.5234 239.477 119.289 239.477 162C239.477 204.711 204.727 239.477 162 239.477C119.273 239.477 84.5234 204.711 84.5234 162C84.5234 119.289 119.273 84.5234 162 84.5234ZM154.957 14.4375V70.7852C118.371 73.5898 87.8047 97.9609 75.8711 131.207L21.3711 116.359C39.9648 59.2227 92.4258 17.4102 154.957 14.4375Z" fill="black"/>
</svg>
